<svg height="480pt" viewBox="0 0 480 480" width="480pt" xmlns="http://www.w3.org/2000/svg"><path d="m240 8c-128.128906 0-232 103.871094-232 232s103.871094 232 232 232 232-103.871094 232-232-103.871094-232-232-232zm-56 88c0-8.835938 7.164062-16 16-16h80c8.835938 0 16 7.164062 16 16v64l-48.0625 27.464844c-4.917969 2.808594-10.957031 2.808594-15.875 0l-48.0625-27.464844zm-88 200c-8.835938 0-16-7.164062-16-16v-80c0-8.835938 7.164062-16 16-16h64l27.464844 48.0625c2.808594 4.917969 2.808594 10.957031 0 15.875l-27.464844 48.0625zm200 88c0 8.835938-7.164062 16-16 16h-80c-8.835938 0-16-7.164062-16-16v-64l48.0625-27.464844c4.917969-2.808594 10.957031-2.808594 15.875 0l48.0625 27.464844zm104-104c0 8.835938-7.164062 16-16 16h-64l-27.464844-48.0625c-2.808594-4.917969-2.808594-10.957031 0-15.875l27.464844-48.0625h64c8.835938 0 16 7.164062 16 16zm0 0" fill="#bfbfbf"/><path d="m187.464844 232.0625-27.464844-48.0625h-64c-8.835938 0-16 7.164062-16 16v80c0 8.835938 7.164062 16 16 16h64l27.464844-48.0625c2.808594-4.917969 2.808594-10.957031 0-15.875zm0 0" fill="#d80027"/><path d="m384 184h-64l-27.464844 48.0625c-2.808594 4.917969-2.808594 10.957031 0 15.875l27.464844 48.0625h64c8.835938 0 16-7.164062 16-16v-80c0-8.835938-7.164062-16-16-16zm0 0" fill="#ffda44"/><path d="m247.9375 187.464844 48.0625-27.464844v-64c0-8.835938-7.164062-16-16-16h-80c-8.835938 0-16 7.164062-16 16v64l48.0625 27.464844c4.917969 2.808594 10.957031 2.808594 15.875 0zm0 0" fill="#64c37d"/><path d="m232.0625 292.535156-48.0625 27.464844v64c0 8.835938 7.164062 16 16 16h80c8.835938 0 16-7.164062 16-16v-64l-48.0625-27.464844c-4.917969-2.808594-10.957031-2.808594-15.875 0zm0 0" fill="#006df0"/><g fill="#231f20"><path d="m240 0c-132.546875 0-240 107.453125-240 240s107.453125 240 240 240 240-107.453125 240-240c-.148438-132.484375-107.515625-239.851562-240-240zm0 464c-123.710938 0-224-100.289062-224-224s100.289062-224 224-224 224 100.289062 224 224c-.140625 123.652344-100.347656 223.859375-224 224zm0 0"/><path d="m194.398438 228.097656-27.453126-48.097656c-1.433593-2.480469-4.082031-4.003906-6.945312-4h-64c-13.253906 0-24 10.746094-24 24v80c0 13.253906 10.746094 24 24 24h64c2.863281.003906 5.511719-1.519531 6.945312-4l27.453126-48.097656c4.195312-7.378906 4.195312-16.425782 0-23.804688zm-13.886719 15.902344-25.152344 44h-59.359375c-4.417969 0-8-3.582031-8-8v-80c0-4.417969 3.582031-8 8-8h59.359375l25.152344 44c1.429687 2.476562 1.429687 5.523438 0 8zm0 0"/><path d="m384 176h-64c-2.863281-.003906-5.511719 1.519531-6.945312 4l-27.453126 48.097656c-4.195312 7.378906-4.195312 16.425782 0 23.804688l27.453126 48.097656c1.433593 2.480469 4.082031 4.003906 6.945312 4h64c13.253906 0 24-10.746094 24-24v-80c0-13.253906-10.746094-24-24-24zm8 104c0 4.417969-3.582031 8-8 8h-59.359375l-25.152344-44c-1.40625-2.457031-1.40625-5.476562 0-7.9375l25.152344-44.0625h59.359375c4.417969 0 8 3.582031 8 8zm0 0"/><path d="m180 166.945312 48.097656 27.453126c7.378906 4.195312 16.425782 4.195312 23.804688 0l48.097656-27.453126c2.480469-1.433593 4.003906-4.082031 4-6.945312v-64c0-13.253906-10.746094-24-24-24h-80c-13.253906 0-24 10.746094-24 24v64c-.003906 2.863281 1.519531 5.511719 4 6.945312zm12-70.945312c0-4.417969 3.582031-8 8-8h80c4.417969 0 8 3.582031 8 8v59.359375l-44 25.152344c-2.460938 1.390625-5.472656 1.390625-7.9375 0l-44.0625-25.152344zm0 0"/><path d="m300 313.054688-48.097656-27.453126c-7.378906-4.203124-16.425782-4.203124-23.804688 0l-48.097656 27.453126c-2.480469 1.433593-4.003906 4.082031-4 6.945312v64c0 13.253906 10.746094 24 24 24h80c13.253906 0 24-10.746094 24-24v-64c.003906-2.863281-1.519531-5.511719-4-6.945312zm-12 70.945312c0 4.417969-3.582031 8-8 8h-80c-4.417969 0-8-3.582031-8-8v-59.359375l44-25.152344c2.460938-1.390625 5.472656-1.390625 7.9375 0l44.0625 25.152344zm0 0"/></g></svg>